<svg t="1751349033870" class="icon" viewBox="0 0 1024 1024" version="1.1" xmlns="http://www.w3.org/2000/svg" p-id="1024" width="22" height="22"><path d="M689.39510908 962H334.60489092A273.0087501 273.0087501 0 0 1 62 689.39510908V334.60489092A273.0087501 273.0087501 0 0 1 334.60489092 62h354.79021816a273.0087501 273.0087501 0 0 1 272.60489092 272.60489092v354.79021816a273.0087501 273.0087501 0 0 1-272.60489092 272.60489092zM334.60489092 122.57886465A212.22795586 212.22795586 0 0 0 122.57886465 334.60489092v354.79021816a212.22795586 212.22795586 0 0 0 212.02602627 212.02602628h354.79021816a212.22795586 212.22795586 0 0 0 212.02602628-212.02602628V334.60489092A212.22795586 212.22795586 0 0 0 689.39510908 122.57886465z" p-id="1025" fill="currentColor"></path><path d="M597.352479 467.083689a31.016379 31.016379 0 0 0-15.623065 33.084137 36.300651 36.300651 0 0 0 35.151896 33.313888 34.692394 34.692394 0 0 0 35.151896-33.313888 30.097375 30.097375 0 0 0-17.461072-33.084137 32.394884 32.394884 0 0 0-37.219655 0z m-101.549921 114.875476a28.259367 28.259367 0 0 0-11.717299 27.570115 34.003141 34.003141 0 0 0 36.760153 33.77339 36.300651 36.300651 0 0 0-2.067759-72.37155 68.925286 68.925286 0 0 0-22.975095 11.717298zM459.501907 394.712138a42.044425 42.044425 0 0 0-47.098945 0 45.950191 45.950191 0 0 0-21.366839 39.057662 37.908907 37.908907 0 0 0 21.366839 39.057662 55.599731 55.599731 0 0 0 22.975095 7.811533 55.36998 55.36998 0 0 0 22.975095-7.811533 45.950191 45.950191 0 0 0 21.366839-39.057662 47.558447 47.558447 0 0 0-21.366839-39.057662z" p-id="1026" fill="currentColor"></path><path d="M264.902849 517.858649l-37.219654 68.925286 56.748486 39.057662 50.77496-41.12542-33.313888-21.59659 25.502356-50.774961-27.340364-50.77496 48.707202-33.084138-4.135517-57.207987 56.748486-7.811532 27.340363-50.774961 50.774961 19.528831 45.950191-33.084137 41.12542 42.963428 56.518735-9.879291 48.936953-39.057662-3.905766-21.59659-78.115324 11.717299-52.84272-58.586493-62.492259 45.95019-74.209558-29.178371L367.601526 316.596814l-78.115325 9.879291 1.838008 79.953332-62.492259 45.950191z m531.413956-9.879291l-52.842719-56.518734 19.528831-76.277317-27.799866-9.64954-50.77496 44.801436 11.717298 3.905766-19.528831 60.654252 45.950191 39.057662-42.963428 45.950191 17.690823 50.774961-54.680727 22.975095-12.406551 55.599731-55.829482-5.284272-36.989904 42.963428-45.95019-33.313888-52.84272 21.596589-29.408122-50.77496-21.366838-2.067759L329.233116 712.227956l45.950191 3.905766 36.989904 68.925286 72.37155-29.178371 66.398026 45.950191 48.936953-60.424501 78.115324 9.64954 15.623065-76.047565 74.209558-27.340364-21.366839-76.277317z m-25.502356-234.345972a27.799865 27.799865 0 0 0-37.219654-3.905767L257.091317 677.995064a25.732107 25.732107 0 0 0-2.067759 37.219654 29.867624 29.867624 0 0 0 19.528831 7.811533 20.218084 20.218084 0 0 0 17.690824-7.811533l476.733229-404.361678a25.502356 25.502356 0 0 0 1.838007-37.219654z" p-id="1027" fill="currentColor"></path></svg>