<?xml version="1.0" standalone="no"?><!DOCTYPE svg PUBLIC "-//W3C//DTD SVG 1.1//EN" "http://www.w3.org/Graphics/SVG/1.1/DTD/svg11.dtd"><svg t="1749141788645" class="icon" viewBox="0 0 1024 1024" version="1.1" xmlns="http://www.w3.org/2000/svg" p-id="25771" width="22" height="22" xmlns:xlink="http://www.w3.org/1999/xlink"><path d="M902.5 335.6h-52.6c-0.1-0.1-0.1-0.3-0.1-0.4L721.2 112.5c-9.8-16.9-31.6-22.8-48.5-13l-8.4 4.8c-16.9 9.8-22.8 31.6-13 48.5l105.5 182.8H262.3l105.5-182.8c9.8-16.9 3.9-38.7-13-48.5l-8.4-4.8c-16.9-9.8-38.8-3.9-48.5 13L169.4 335.3c-0.1 0.1-0.1 0.3-0.1 0.4h-47.7c-30.7 0-55.6 25.9-55.6 57.7l95.7 481.9c1.8 30.1 26 54 55.5 54H812c29.5 0 53.8-24 55.5-54.1l90-475.9 0.5-5.8c0.1-32-24.9-57.9-55.5-57.9z m-97.3 530.1l-581.2 0.5-93.5-467.5h763l-88.3 467z" p-id="25772" fill="currentColor"></path><path d="M404.1 777.6c19.6 0 35.6-16 35.6-35.6V561.1c0-19.6-16-35.6-35.6-35.6s-35.6 15.9-35.6 35.6V742c0 19.6 16 35.6 35.6 35.6zM661.2 777.6c19.6 0 35.6-16 35.6-35.6V561.1c0-19.6-16-35.6-35.6-35.6s-35.6 15.9-35.6 35.6V742c-0.1 19.6 15.9 35.6 35.6 35.6z" p-id="25773" fill="currentColor"></path></svg>