<svg t="1751349155217" class="icon" viewBox="0 0 1024 1024" version="1.1" xmlns="http://www.w3.org/2000/svg" p-id="1054" width="22" height="22"><path d="M512 62C264.5 62 62 264.5 62 512s202.5 450 450 450 450-202.5 450-450-202.5-450-450-450z m73.125 78.75l11.25-11.25c163.125 39.375 286.875 174.375 303.75 343.125L686.375 287 551.375 174.5l33.75-33.75z m219.375 320.625l-11.25 11.25-123.75 264.375H343.25v-11.25L230.75 461.375l281.25-247.5 140.625 118.125 151.875 129.375zM512 118.25h11.25L202.625 405.125 174.5 332l-5.625-11.25C236.375 202.625 365.75 118.25 512 118.25zM191.375 742.625C146.375 675.125 118.25 596.375 118.25 512c0-39.375 5.625-84.375 16.875-118.125L287 742.625H191.375z m405 151.875c-28.125 5.625-56.25 11.25-84.375 11.25-106.875 0-202.5-39.375-270-106.875l405-5.625-50.625 101.25z m73.125-22.5l39.375-78.75 135-292.5 39.375 33.75 22.5 11.25c-16.875 146.25-106.875 270-236.25 326.25z" fill="currentColor" p-id="1055"></path></svg>