<?xml version="1.0" standalone="no"?><!DOCTYPE svg PUBLIC "-//W3C//DTD SVG 1.1//EN" "http://www.w3.org/Graphics/SVG/1.1/DTD/svg11.dtd"><svg t="1749141582814" class="icon" viewBox="0 0 1024 1024" version="1.1" xmlns="http://www.w3.org/2000/svg" p-id="18792" width="22" height="22" xmlns:xlink="http://www.w3.org/1999/xlink"><path d="M982.4 460.8c25.6-25.6 38.4-60.8 38.4-112 0-176-169.6-316.8-377.6-316.8S265.6 172.8 265.6 348.8c0 12.8 0 22.4 3.2 32-51.2-3.2-105.6 12.8-153.6 44.8C64 460.8 28.8 508.8 12.8 560c-19.2 57.6-9.6 112 19.2 156.8 16 25.6 38.4 41.6 60.8 44.8h16c38.4 0 73.6-25.6 108.8-48 16 19.2 28.8 41.6 38.4 64 6.4 12.8 16 38.4 12.8 73.6v9.6c0 28.8-3.2 67.2 28.8 102.4 19.2 19.2 41.6 28.8 70.4 28.8 28.8 0 57.6-12.8 83.2-32l3.2-3.2c32 28.8 80 44.8 131.2 44.8 9.6 0 19.2 0 28.8-3.2 60.8-6.4 121.6-44.8 156.8-92.8 35.2-48 44.8-102.4 32-163.2-16-86.4-25.6-163.2-22.4-236.8h12.8c86.4 0 147.2-6.4 188.8-44.8z m-550.4 73.6c3.2-9.6 3.2-19.2 0-32 32 3.2 67.2 3.2 102.4 0 3.2 44.8 3.2 86.4-3.2 124.8-3.2 25.6-16 60.8-54.4 105.6l-9.6 9.6-3.2 3.2v3.2c-3.2-6.4-9.6-9.6-12.8-16-38.4-38.4-70.4-76.8-92.8-115.2 35.2-19.2 67.2-44.8 73.6-83.2z m38.4 345.6c-9.6-38.4 16-64 41.6-96 3.2-3.2 6.4-6.4 9.6-12.8 44.8-54.4 60.8-102.4 64-134.4 6.4-41.6 9.6-86.4 3.2-134.4h137.6c-3.2 76.8 6.4 160 25.6 249.6 9.6 44.8 0 86.4-25.6 121.6-28.8 38.4-73.6 67.2-121.6 70.4-70.4 9.6-124.8-25.6-134.4-64zM643.2 448h-83.2c-96 3.2-179.2 3.2-214.4-28.8-16-16-22.4-38.4-22.4-70.4 0-144 144-262.4 323.2-262.4s323.2 118.4 323.2 262.4c0 32-6.4 57.6-22.4 70.4-35.2 35.2-118.4 32-214.4 28.8-28.8 3.2-57.6 0-89.6 0z m-499.2 22.4c35.2-22.4 76.8-35.2 112-35.2 9.6 0 22.4 0 32 3.2 3.2 6.4 9.6 12.8 16 19.2 16 16 38.4 28.8 67.2 35.2 9.6 16 9.6 25.6 6.4 28.8-6.4 22.4-44.8 48-89.6 76.8-12.8 9.6-25.6 16-41.6 25.6-12.8 9.6-28.8 19.2-41.6 28.8-38.4 25.6-76.8 54.4-99.2 54.4h-6.4c-3.2 0-12.8-3.2-25.6-22.4-19.2-28.8-25.6-70.4-12.8-108.8 16-38.4 44.8-76.8 83.2-105.6zM326.4 864v-9.6c0-44.8-9.6-80-19.2-99.2-12.8-22.4-25.6-48-41.6-70.4 6.4-3.2 9.6-6.4 16-9.6 9.6-6.4 19.2-12.8 32-22.4 25.6 41.6 60.8 83.2 99.2 124.8 6.4 9.6 12.8 16 19.2 25.6-16 28.8-22.4 57.6-16 89.6 0 6.4 3.2 12.8 6.4 19.2-3.2 3.2-3.2 6.4-6.4 6.4-28.8 25.6-60.8 22.4-76.8 6.4-12.8-16-12.8-35.2-12.8-60.8z m41.6 73.6h-9.6c3.2-3.2 6.4 0 9.6 0z m-19.2-6.4c-3.2 0-3.2-3.2-6.4-3.2 3.2 0 6.4 3.2 6.4 3.2z" p-id="18793" fill="currentColor"></path><path d="M617.6 902.4c3.2 0 6.4 0 9.6-3.2 96-41.6 99.2-150.4 99.2-153.6 0-6.4-3.2-9.6-6.4-16-3.2-3.2-9.6-6.4-16-6.4-12.8 0-19.2 9.6-19.2 19.2 0 0 0 22.4-9.6 48-12.8 32-35.2 54.4-64 67.2-9.6 3.2-16 16-9.6 25.6 0 12.8 6.4 19.2 16 19.2z m35.2-73.6c3.2-3.2 3.2-6.4 6.4-9.6-3.2 6.4-6.4 6.4-6.4 9.6z m12.8-22.4c0-3.2 3.2-3.2 3.2-6.4 0 3.2 0 6.4-3.2 6.4z m-28.8 38.4l6.4-6.4-6.4 6.4z m-19.2 12.8s3.2 0 3.2-3.2c0 0 0 3.2-3.2 3.2z" p-id="18794" fill="currentColor"></path></svg>